<mxfile host="Electron" agent="Mozilla/5.0 (Macintosh; Intel Mac OS X 10_15_7) AppleWebKit/537.36 (KHTML, like Gecko) draw.io/28.1.2 Chrome/138.0.7204.243 Electron/37.4.0 Safari/537.36" version="28.1.2">
  <diagram name="Page-1" id="5JhpsRt87db9UfCG_Ggc">
    <mxGraphModel dx="1298" dy="952" grid="1" gridSize="10" guides="1" tooltips="1" connect="1" arrows="1" fold="1" page="1" pageScale="1" pageWidth="1169" pageHeight="827" math="0" shadow="0">
      <root>
        <mxCell id="0" />
        <mxCell id="1" parent="0" />
        <mxCell id="F0P46SvIpgrqzkpsTRL8-1" value="" style="dashed=0;shape=rect;fillColor=#FF66FF;strokeColor=none;" vertex="1" parent="1">
          <mxGeometry x="350" y="100" width="358" height="642" as="geometry" />
        </mxCell>
        <mxCell id="F0P46SvIpgrqzkpsTRL8-2" value="" style="dashed=0;shape=rect;strokeColor=none;fillColor=#000000;resizeWidth=1;" vertex="1" parent="F0P46SvIpgrqzkpsTRL8-1">
          <mxGeometry y="1" width="358" height="48" relative="1" as="geometry">
            <mxPoint y="-48" as="offset" />
          </mxGeometry>
        </mxCell>
        <mxCell id="F0P46SvIpgrqzkpsTRL8-3" value="" style="dashed=0;shape=mxgraph.gmdl.back;strokeColor=#ffffff;fillColor=#000000;strokeWidth=2;" vertex="1" parent="F0P46SvIpgrqzkpsTRL8-2">
          <mxGeometry x="0.25" y="0.5" width="14" height="14" relative="1" as="geometry">
            <mxPoint x="-7" y="-7" as="offset" />
          </mxGeometry>
        </mxCell>
        <mxCell id="F0P46SvIpgrqzkpsTRL8-4" value="" style="shape=ellipse;strokeColor=#ffffff;fillColor=#000000;strokeWidth=2;" vertex="1" parent="F0P46SvIpgrqzkpsTRL8-2">
          <mxGeometry x="0.5" y="0.5" width="14" height="14" relative="1" as="geometry">
            <mxPoint x="-7" y="-7" as="offset" />
          </mxGeometry>
        </mxCell>
        <mxCell id="F0P46SvIpgrqzkpsTRL8-5" value="" style="shape=rect;strokeColor=#ffffff;fillColor=#000000;strokeWidth=2;" vertex="1" parent="F0P46SvIpgrqzkpsTRL8-2">
          <mxGeometry x="0.75" y="0.5" width="14" height="14" relative="1" as="geometry">
            <mxPoint x="-7" y="-7" as="offset" />
          </mxGeometry>
        </mxCell>
        <mxCell id="F0P46SvIpgrqzkpsTRL8-6" value="&lt;font style=&quot;font-size: 16px;&quot;&gt;Register&lt;/font&gt;" style="whiteSpace=wrap;html=1;dashed=0;align=center;fontSize=12;shape=rect;fillColor=#2196F3;strokeColor=none;fontStyle=1;shadow=1;fontColor=#ffffff;" vertex="1" parent="F0P46SvIpgrqzkpsTRL8-1">
          <mxGeometry x="9" y="350" width="340" height="36" as="geometry" />
        </mxCell>
        <mxCell id="F0P46SvIpgrqzkpsTRL8-7" value="Enter Username" style="text;fontSize=16;verticalAlign=middle;strokeColor=none;fillColor=none;whiteSpace=wrap;html=1;" vertex="1" parent="F0P46SvIpgrqzkpsTRL8-1">
          <mxGeometry x="6" y="170" width="346" height="30" as="geometry" />
        </mxCell>
        <mxCell id="F0P46SvIpgrqzkpsTRL8-8" value="" style="dashed=0;shape=line;strokeWidth=2;noLabel=1;strokeColor=#0C8CF2;opacity=50;" vertex="1" parent="F0P46SvIpgrqzkpsTRL8-1">
          <mxGeometry x="6" y="200" width="346" height="10" as="geometry" />
        </mxCell>
        <mxCell id="F0P46SvIpgrqzkpsTRL8-9" value="Enter Password" style="text;fontSize=16;verticalAlign=middle;strokeColor=none;fillColor=none;whiteSpace=wrap;html=1;" vertex="1" parent="F0P46SvIpgrqzkpsTRL8-1">
          <mxGeometry x="6" y="270" width="346" height="30" as="geometry" />
        </mxCell>
        <mxCell id="F0P46SvIpgrqzkpsTRL8-10" value="" style="dashed=0;shape=line;strokeWidth=2;noLabel=1;strokeColor=#0C8CF2;opacity=50;" vertex="1" parent="F0P46SvIpgrqzkpsTRL8-1">
          <mxGeometry x="6" y="304" width="346" height="10" as="geometry" />
        </mxCell>
        <mxCell id="F0P46SvIpgrqzkpsTRL8-11" value="&lt;font style=&quot;font-size: 16px;&quot;&gt;Already having an account? Login&lt;/font&gt;" style="text;strokeColor=none;align=center;fillColor=none;html=1;verticalAlign=middle;whiteSpace=wrap;rounded=0;" vertex="1" parent="F0P46SvIpgrqzkpsTRL8-1">
          <mxGeometry x="20" y="410" width="300" height="30" as="geometry" />
        </mxCell>
        <mxCell id="F0P46SvIpgrqzkpsTRL8-12" value="&lt;span style=&quot;font-size: 20px;&quot;&gt;CREATE ACCOUNT&lt;/span&gt;" style="text;strokeColor=none;align=center;fillColor=none;html=1;verticalAlign=middle;whiteSpace=wrap;rounded=0;" vertex="1" parent="F0P46SvIpgrqzkpsTRL8-1">
          <mxGeometry x="54" y="60" width="250" height="30" as="geometry" />
        </mxCell>
        <mxCell id="F0P46SvIpgrqzkpsTRL8-15" value="Enter Name" style="text;fontSize=16;verticalAlign=middle;strokeColor=none;fillColor=none;whiteSpace=wrap;html=1;" vertex="1" parent="F0P46SvIpgrqzkpsTRL8-1">
          <mxGeometry x="6" y="120" width="346" height="30" as="geometry" />
        </mxCell>
        <mxCell id="F0P46SvIpgrqzkpsTRL8-16" value="" style="dashed=0;shape=line;strokeWidth=2;noLabel=1;strokeColor=#0C8CF2;opacity=50;" vertex="1" parent="F0P46SvIpgrqzkpsTRL8-1">
          <mxGeometry x="6" y="150" width="346" height="10" as="geometry" />
        </mxCell>
        <mxCell id="F0P46SvIpgrqzkpsTRL8-17" value="Enter Email" style="text;fontSize=16;verticalAlign=middle;strokeColor=none;fillColor=none;whiteSpace=wrap;html=1;" vertex="1" parent="F0P46SvIpgrqzkpsTRL8-1">
          <mxGeometry x="6" y="220" width="346" height="30" as="geometry" />
        </mxCell>
        <mxCell id="F0P46SvIpgrqzkpsTRL8-18" value="" style="dashed=0;shape=line;strokeWidth=2;noLabel=1;strokeColor=#0C8CF2;opacity=50;" vertex="1" parent="F0P46SvIpgrqzkpsTRL8-1">
          <mxGeometry x="6" y="250" width="346" height="10" as="geometry" />
        </mxCell>
      </root>
    </mxGraphModel>
  </diagram>
</mxfile>
